<svg width="49" height="48" viewBox="0 0 49 48" fill="none" xmlns="http://www.w3.org/2000/svg">
<path fill-rule="evenodd" clip-rule="evenodd" d="M25.9155 24V48H26.6816C27.1031 48 27.8349 47.6992 28.3078 47.3318C30.073 45.96 30.1268 45.6122 30.1268 35.536V26.24H38.2254H49V23.9898V21.7398L38.3063 21.7715L30.2887 21.8032L30.2035 10.9018L30.1183 0H28.0169H25.9155V24ZM12.9577 24.16C12.9577 43.2995 12.9908 44.48 13.5246 44.4787C14.5185 44.4768 16.0692 43.3126 16.628 42.1494C17.1139 41.1376 17.169 39.1357 17.169 22.4317V3.84H15.0634H12.9577V24.16ZM0 24.1376V30.6752L1.04504 30.3792C1.61972 30.2163 2.53065 29.648 3.06969 29.1165L4.0493 28.1494L4.15199 22.8746L4.255 17.6H2.12734H0V24.1376Z" fill="#F24B4B"/>
</svg>
