<svg width="43" height="41" viewBox="0 0 43 41" fill="none" xmlns="http://www.w3.org/2000/svg">
<path d="M23.7981 3.296V3.16467C23.7981 2.55181 23.9951 2.00462 24.3891 1.52308C24.7831 1.04155 25.2865 0.800781 25.8994 0.800781C26.5122 0.800781 27.0594 0.997772 27.541 1.39175C28.0225 1.78574 28.2851 2.31105 28.3289 2.96768C28.3727 3.62432 28.1757 4.17152 27.7379 4.60927C27.3002 5.04703 26.7749 5.26591 26.162 5.26591L25.768 5.39724L25.8994 5.59423L25.768 6.31653L25.5054 8.41777C25.5929 8.50532 25.6367 8.59287 25.6367 8.68042L25.3741 9.99369C25.2865 10.1688 25.199 10.3001 25.1114 10.3877L24.9801 10.913C24.805 11.6134 24.6518 12.1825 24.5204 12.6202C24.3891 13.058 24.2797 13.4082 24.1921 13.6709V13.9335C24.1046 14.3713 24.0389 14.7215 23.9951 14.9841C23.9513 15.2468 23.7981 15.6845 23.5355 16.2974C23.3604 16.6476 23.3604 17.2167 23.5355 18.0047L23.6668 18.136C23.6668 18.3986 23.7762 18.7051 23.9951 19.0553C24.214 19.4055 24.3234 19.7119 24.3234 19.9746C24.411 21.7256 24.2797 23.214 23.9295 24.4397L24.1921 25.2277C25.2427 25.753 25.5492 26.3221 25.1114 26.9349L25.768 27.1976C26.8187 27.7229 27.5628 28.1825 28.0006 28.5765C28.4384 28.9705 28.8761 29.3864 29.3139 29.8241C29.6641 29.9117 29.9267 30.043 30.1018 30.2181L30.4958 30.3494C32.3344 31.5752 34.173 33.0635 36.0116 34.8146L36.5369 35.2085V35.3399L36.4056 35.6025L36.7995 35.8652H36.9309C37.1935 36.0403 37.3686 36.1278 37.4562 36.1278H37.5875C37.6751 36.1278 37.7626 36.0841 37.8502 35.9965L38.1128 35.8652C38.2879 35.6901 38.463 35.5587 38.6381 35.4712H39.1634C39.251 35.4712 39.251 35.515 39.1634 35.6025L38.6381 35.8652L37.9815 36.6531H38.9008L39.8201 36.7845C40.0827 36.6969 40.3016 36.6094 40.4767 36.5218L41.1333 36.1278C41.396 36.0403 41.6586 36.1278 41.9213 36.3905H42.0526C42.1402 36.478 42.0964 36.6094 41.9213 36.7845L40.3454 38.2291C39.9076 38.5793 39.5136 38.7982 39.1634 38.8857L37.4562 40.0676C37.3686 40.1552 37.2811 40.1552 37.1935 40.0676L36.7995 39.5423L36.5369 39.017L36.2086 38.5574L35.8146 38.0321L35.4863 37.6381L35.2236 37.3098L34.6983 36.9158C34.5232 36.9158 34.3481 36.872 34.173 36.7845L32.4657 35.4712C32.2031 35.4712 31.8967 35.3399 31.5464 35.0772C30.2332 33.939 29.3577 33.2386 28.9199 32.976L28.1319 32.4507L26.556 32.188C26.0307 32.1005 25.3303 31.8378 24.4548 31.4L23.4041 30.8747C22.7037 30.5245 22.2222 30.3494 21.9595 30.3494L21.4342 30.0868C21.084 29.9992 20.8214 29.9117 20.6463 29.8241L20.3836 29.5615C20.2085 29.5615 20.0334 29.6052 19.8583 29.6928L17.2318 31.0061L13.9486 32.4507C13.0731 33.1511 12.2413 33.7202 11.4534 34.1579L10.0088 34.8146L7.77619 36.3905C7.60109 36.5656 7.42599 36.5656 7.25088 36.3905L6.98823 36.6531C6.72557 36.7407 6.55047 36.7845 6.46292 36.7845L5.93761 37.0471V37.3098H5.67496L5.4123 37.7038C5.2372 38.054 5.06209 38.251 4.88699 38.2947C4.71189 38.3385 4.60245 38.4042 4.55867 38.4917C4.5149 38.5793 4.47112 38.6449 4.42735 38.6887L4.16469 38.9514L3.77071 39.214L3.17974 39.1484L2.39177 39.2797L1.86646 39.411C1.4287 39.4986 1.0785 39.4329 0.815844 39.214C0.553189 38.9951 0.33431 38.6668 0.159207 38.2291C-0.0158963 37.9664 0.0716553 37.7475 0.421862 37.5724L0.553189 37.4411C0.64074 37.3536 0.772068 37.3098 0.947171 37.3098H1.73514L2.78575 36.9158L3.31106 36.7845C3.31106 36.6094 3.35484 36.478 3.44239 36.3905C3.52994 36.3029 3.66127 36.2592 3.83637 36.2592V36.1278C3.74882 35.9527 3.70505 35.7776 3.70505 35.6025C3.61749 35.4274 3.59561 35.2961 3.63938 35.2085C3.68316 35.121 3.72693 35.0772 3.77071 35.0772H3.83637L3.9677 35.4712C4.05525 35.909 4.18658 36.0403 4.36168 35.8652L4.49301 35.6025C4.58056 35.4274 4.71189 35.3399 4.88699 35.3399L5.14965 35.6025L5.4123 35.3399L5.28097 35.2085C5.28097 35.121 5.32475 35.0772 5.4123 35.0772L5.93761 34.5519C6.37537 34.0266 6.90068 33.5451 7.51354 33.1073C8.73926 32.1442 10.0525 31.4 11.4534 30.8747C11.8911 30.437 12.3727 30.2181 12.898 30.2181C13.2482 29.6052 13.7735 28.9486 14.4739 28.2482C15.0868 27.8104 15.5245 27.504 15.7872 27.3289C15.9623 26.9787 16.1811 26.8036 16.4438 26.8036H16.5751L16.8378 26.5409C17.0129 26.4534 17.1442 26.3658 17.2318 26.2783V25.6216C17.2318 25.1839 17.2755 24.8337 17.3631 24.571C17.4506 24.3084 17.6695 24.177 18.0197 24.177L18.545 23.6517C18.3699 23.3015 18.2824 22.9075 18.2824 22.4698H18.1511C17.976 22.2071 17.8884 21.9445 17.8884 21.6818C17.6257 21.2441 17.4506 20.8939 17.3631 20.6312H16.9691C16.8816 20.8939 16.6627 21.069 16.3125 21.1565L16.1811 21.4192C15.8309 22.032 15.5245 22.4917 15.2619 22.7981C14.9992 23.1045 14.5177 23.4766 13.8173 23.9144C13.3795 24.3521 13.0731 24.8337 12.898 25.359C12.8104 25.6216 12.8104 25.8843 12.898 26.147L12.7666 26.4096H12.898C12.898 26.5847 12.9417 26.6723 13.0293 26.6723H13.1606C13.3357 26.7598 13.4233 26.8693 13.4233 27.0006C13.4233 27.1319 13.2919 27.1757 13.0293 27.1319C12.7666 27.0881 12.5696 27.0006 12.4383 26.8693C12.307 26.7379 12.1975 26.6723 12.11 26.6723L11.716 27.0662C11.5409 27.3289 11.3658 27.4383 11.1907 27.3946C11.0156 27.3508 10.9718 27.2851 11.0594 27.1976L11.1907 27.0662C11.2783 26.8911 11.2783 26.8036 11.1907 26.8036L10.1401 27.0662C10.0525 27.1538 9.94309 27.1538 9.81177 27.0662C9.68044 26.9787 9.70233 26.8911 9.87743 26.8036L10.5341 26.5409C10.5341 26.4534 10.4903 26.4096 10.4027 26.4096C10.0525 26.5847 9.70233 26.6285 9.35212 26.5409L8.69548 26.4096L8.56416 26.2783C8.56416 26.1907 8.60793 26.147 8.69548 26.147C9.04569 26.2345 9.48345 26.1907 10.0088 26.0156L10.9281 25.6216L11.9787 24.4397L12.11 24.177C12.4602 23.4766 12.8323 22.8419 13.2263 22.2728C13.6203 21.7037 14.0361 21.2441 14.4739 20.8939L14.6052 20.3686C14.7803 20.0183 14.9554 19.7119 15.1305 19.4493C15.3056 19.1866 15.5245 18.8364 15.7872 18.3986L16.1811 17.8733C16.5314 17.348 16.9253 17.0854 17.3631 17.0854L17.7571 16.6914C17.8446 16.6038 17.8884 16.4725 17.8884 16.2974L18.1511 16.0347L18.0197 15.9034C17.4944 15.4657 17.2318 15.0717 17.2318 14.7215C17.1442 14.1086 17.3412 13.5833 17.8227 13.1456C18.3043 12.7078 18.7858 12.5108 19.2673 12.5546C19.7489 12.5984 20.121 12.7516 20.3836 13.0142L20.6463 13.2769C20.7338 13.2769 20.7776 13.3207 20.7776 13.4082L21.3029 13.6709V14.0648C21.478 14.2399 21.5656 14.3713 21.5656 14.4588C21.7407 14.1962 22.0033 13.8897 22.3535 13.5395L23.0102 11.4383C23.0102 11.0881 23.0977 10.7379 23.2728 10.3877L23.5355 9.99369V9.73104L23.9295 8.15511H24.1921L24.5861 6.57918C24.6736 6.31653 24.6736 6.0101 24.5861 5.65989L24.0608 4.34662L23.7981 3.296Z" fill="white"/>
</svg>
