<svg width="29" height="37" viewBox="0 0 29 37" fill="none" xmlns="http://www.w3.org/2000/svg">
<path d="M14.5 0C10.6558 0.00468521 6.97039 1.5374 4.25213 4.26194C1.53386 6.98649 0.00468939 10.6804 1.49926e-05 14.5335C-0.00452423 17.6824 1.02179 20.7457 2.9215 23.2536C2.9215 23.2536 3.31695 23.7749 3.38049 23.8504L14.5 36.9944L25.6241 23.8447C25.6827 23.7743 26.0785 23.2531 26.0785 23.2531L26.0805 23.2499C27.9791 20.743 29.0047 17.6809 29 14.5335C28.9953 10.6804 27.4661 6.98649 24.7479 4.26194C22.0296 1.5374 18.3442 0.00468521 14.5 0ZM14.5 19.8184C13.4572 19.8184 12.4377 19.5085 11.5706 18.9278C10.7035 18.3471 10.0277 17.5217 9.62864 16.556C9.22956 15.5903 9.12514 14.5277 9.32859 13.5025C9.53204 12.4773 10.0342 11.5356 10.7716 10.7965C11.509 10.0574 12.4485 9.55407 13.4713 9.35015C14.4942 9.14623 15.5543 9.25089 16.5178 9.65089C17.4812 10.0509 18.3047 10.7283 18.8841 11.5974C19.4635 12.4665 19.7727 13.4883 19.7727 14.5335C19.7712 15.9347 19.2151 17.278 18.2266 18.2688C17.2382 19.2596 15.8979 19.8169 14.5 19.8184Z" fill="#FFB403"/>
</svg>
